<svg width="54" height="54" viewBox="0 0 54 54" fill="none" xmlns="http://www.w3.org/2000/svg">
<path fill-rule="evenodd" clip-rule="evenodd" d="M26.6667 50.6667C39.9213 50.6667 50.6667 39.9213 50.6667 26.6667C50.6667 13.412 39.9213 2.66667 26.6667 2.66667C13.412 2.66667 2.66667 13.412 2.66667 26.6667C2.66667 39.9213 13.412 50.6667 26.6667 50.6667ZM26.6667 53.3333C41.3947 53.3333 53.3333 41.3947 53.3333 26.6667C53.3333 11.9387 41.3947 0 26.6667 0C11.9387 0 0 11.9387 0 26.6667C0 41.3947 11.9387 53.3333 26.6667 53.3333Z" fill="#1D3752"/>
<path d="M10.667 42.1734C10.667 40.796 11.6963 39.632 13.067 39.48C23.3537 38.3414 30.027 38.444 40.291 39.5054C40.8035 39.5592 41.2893 39.7611 41.689 40.0865C42.0887 40.4118 42.385 40.8465 42.5416 41.3375C42.6983 41.8285 42.7086 42.3545 42.5713 42.8512C42.434 43.3479 42.155 43.7939 41.7683 44.1347C29.655 54.6934 22.7323 54.548 11.5203 44.1454C10.9737 43.6387 10.667 42.9187 10.667 42.1747V42.1734Z" fill="#1D3752"/>
<path fill-rule="evenodd" clip-rule="evenodd" d="M40.153 40.8307C29.9704 39.7774 23.393 39.6787 13.2117 40.8054C12.8765 40.8444 12.5676 41.0057 12.3439 41.2584C12.1203 41.511 11.9977 41.8373 11.9997 42.1747C11.9997 42.556 12.1583 42.9174 12.4263 43.168C17.9837 48.3227 22.1943 50.652 26.3103 50.6667C30.441 50.6814 34.8783 48.3707 40.8917 43.1307C41.0827 42.9607 41.2202 42.7388 41.2875 42.4921C41.3548 42.2453 41.349 41.9843 41.2708 41.7409C41.1925 41.4974 41.0452 41.2819 40.8468 41.1205C40.6484 40.9592 40.4073 40.859 40.153 40.832V40.8307ZM12.9197 38.1547C23.3143 37.004 30.085 37.108 40.429 38.1787C41.2001 38.2592 41.931 38.5627 42.5322 39.0522C43.1334 39.5417 43.5788 40.1958 43.814 40.9345C44.0491 41.6733 44.0638 42.4645 43.8562 43.2115C43.6486 43.9584 43.2277 44.6286 42.645 45.14C36.545 50.4574 31.465 53.3534 26.3023 53.3334C21.125 53.3147 16.269 50.3694 10.6143 45.1227C10.2095 44.7456 9.88674 44.2891 9.66627 43.7816C9.44581 43.2741 9.33236 42.7267 9.33302 42.1734C9.33107 41.1793 9.69595 40.2194 10.3578 39.4776C11.0196 38.7359 11.9318 38.2643 12.9197 38.1534V38.1547Z" fill="#1D3752"/>
<path d="M37.3333 21.3334C37.3333 24.1624 36.2095 26.8755 34.2091 28.8759C32.2087 30.8763 29.4956 32.0001 26.6667 32.0001C23.8377 32.0001 21.1246 30.8763 19.1242 28.8759C17.1238 26.8755 16 24.1624 16 21.3334C16 18.5044 17.1238 15.7913 19.1242 13.7909C21.1246 11.7906 23.8377 10.6667 26.6667 10.6667C29.4956 10.6667 32.2087 11.7906 34.2091 13.7909C36.2095 15.7913 37.3333 18.5044 37.3333 21.3334Z" fill="#1D3752"/>
<path fill-rule="evenodd" clip-rule="evenodd" d="M26.6667 29.3334C28.7884 29.3334 30.8232 28.4906 32.3235 26.9903C33.8238 25.49 34.6667 23.4551 34.6667 21.3334C34.6667 19.2117 33.8238 17.1769 32.3235 15.6766C30.8232 14.1763 28.7884 13.3334 26.6667 13.3334C24.5449 13.3334 22.5101 14.1763 21.0098 15.6766C19.5095 17.1769 18.6667 19.2117 18.6667 21.3334C18.6667 23.4551 19.5095 25.49 21.0098 26.9903C22.5101 28.4906 24.5449 29.3334 26.6667 29.3334ZM26.6667 32.0001C29.4956 32.0001 32.2087 30.8763 34.2091 28.8759C36.2095 26.8755 37.3333 24.1624 37.3333 21.3334C37.3333 18.5044 36.2095 15.7913 34.2091 13.7909C32.2087 11.7906 29.4956 10.6667 26.6667 10.6667C23.8377 10.6667 21.1246 11.7906 19.1242 13.7909C17.1238 15.7913 16 18.5044 16 21.3334C16 24.1624 17.1238 26.8755 19.1242 28.8759C21.1246 30.8763 23.8377 32.0001 26.6667 32.0001Z" fill="#1D3752"/>
</svg>
